<?xml version="1.0" encoding="UTF-8"?>
<svg width="80px" height="83px" viewBox="0 0 80 83" version="1.1" xmlns="http://www.w3.org/2000/svg" xmlns:xlink="http://www.w3.org/1999/xlink">
    <title>Group</title>
    <g id="Mobile" stroke="none" stroke-width="1" fill="none" fill-rule="evenodd">
        <g id="01.-splash" transform="translate(-120.000000, -252.000000)">
            <g id="Group" transform="translate(120.000000, 252.000000)">
                <path d="M57,51.0003616 C57,48.3765097 55.4164882,46 52.3887745,46 L51.2693955,46 L28.7299045,46 L27.6112255,46 C24.6304151,46 23,48.4256889 23,51.0003616 C23,53.6234903 24.5828117,56 27.6112255,56 L28.7299045,56 L51.2693955,56 L52.3887745,56 C55.3695849,56 57,53.5743111 57,51.0003616" id="Fill-1-Copy" fill="#4DABF7"></path>
                <path d="M74.9199584,30.171129 C73.5411068,29.4354356 72.0441477,28.9909396 70.5576716,28.5499436 C62.2475225,26.0838657 53.2496946,22.4956979 50.1062205,13.0926824 C49.0327709,9.88181124 48.150809,5.9338467 46.1094377,3.26827064 C44.6089844,1.30828825 42.4166593,0 40.0286533,0 C40.0195681,0 40.009784,0.00209998114 40,0.00209998114 C39.9909148,0.00209998114 39.9811308,0 39.9713467,0 C37.5833407,0 35.3910156,1.30828825 33.8905623,3.26827064 C31.849191,5.9338467 30.9672291,9.88181124 29.8937795,13.0926824 C26.7510043,22.4956979 17.7524775,26.0838657 9.44302721,28.5499436 C7.95655111,28.9909396 6.45889324,29.4354356 5.08004164,30.171129 C0.535352365,32.5966072 -1.58848444,39.2367476 1.35791107,43.868606 C6.75241462,52.3483298 19.8015363,45.7298892 25.9186615,42.087122 C26.3484607,41.8309243 26.7761632,41.5705266 27.2017692,41.305929 C31.2670403,38.7796517 35.1617893,35.7122792 38.6372222,32.0163124 C39.1054587,31.5179169 39.5457407,31.0097215 39.9713467,30.4952261 L40,30.5288258 L40.0286533,30.4952261 C40.4549581,31.0097215 40.8945413,31.5179169 41.3627778,32.0163124 C44.8382107,35.7122792 48.7329597,38.7796517 52.7989296,41.305929 C53.2245356,41.5705266 53.6515393,41.8309243 54.0820374,42.087122 C60.1991626,45.7298892 73.2482842,52.3483298 78.6420889,43.868606 C81.5884844,39.2367476 79.4646476,32.5966072 74.9199584,30.171129" id="Fill-3-Copy" fill="#4DABF7"></path>
                <path d="M70.2593625,30 C65.5316101,30 60.614468,33.0603968 60.614468,39.9445405 L60.614468,56.4450752 L60.614468,58.3698927 L60.614468,62.3461696 C60.614468,64.5319674 59.9526526,65.7340163 57.6834712,65.7340163 L39.9996506,65.7340163 L22.3165288,65.7340163 C20.0466486,65.7340163 19.385532,64.5319674 19.385532,62.3461696 L19.385532,58.3698927 L19.385532,56.4450752 L19.385532,39.9445405 C19.385532,33.0603968 14.4676911,30 9.73993868,30 C4.7277524,30 0,32.6230973 0,39.7262406 L0,66.1699164 C0,78.8467042 2.26988023,83 13.7115302,83 L39.9996506,83 L66.2877709,83 C77.7294209,83 80,78.8467042 80,66.1699164 L80,39.7262406 C80,32.6230973 75.2715487,30 70.2593625,30" id="Fill-6-Copy" fill="#4DABF7"></path>
                <path d="M70.2592073,30 C73.4763187,30 76.5765385,31.066171 78.3845714,33.6829578 C79.0119758,34.6736193 79.4733642,35.7786119 79.7387173,36.9272684 C79.9087903,37.7346877 80,38.6227497 80,39.5960718 L79.9978788,39.350282 C79.9701544,40.9436596 79.5433273,42.5274835 78.6414047,43.9257289 C74.7749219,49.9202222 66.9747367,48.263818 60.6140256,45.5218389 L60.6141592,39.8114502 C60.6141592,33.0194388 65.5313796,30 70.2592073,30 Z M9.73881928,30 C14.466647,30 19.3845662,33.0194388 19.3845662,39.8114502 L19.3845662,39.8114502 L19.3848676,45.5217598 C13.0240828,48.2637861 5.2236428,49.9202799 1.35662185,43.9257289 C0.457714484,42.5321579 0.0307313186,40.9542473 0.000439224362,39.3662621 L0.0025175929,39.2549677 C0.0217380562,38.3973063 0.113642644,37.6081924 0.269561812,36.8840512 C0.534141091,35.7598647 0.986729632,34.6783156 1.59844764,33.7059582 C3.40383577,31.0723505 6.51239811,30 9.73881928,30 Z" id="Combined-Shape-Copy" fill="#007CC4"></path>
            </g>
        </g>
    </g>
</svg>