<svg xmlns="http://www.w3.org/2000/svg" width="24" height="24" viewBox="0 0 24 24">
    <g fill="none" fill-rule="evenodd">
        <g>
            <g>
                <path d="M0 0L24 0 24 24 0 24z" transform="translate(-151 -30) translate(151 30)"/>
                <path fill="#4DABF7" d="M12 2.5c5.247 0 9.5 4.253 9.5 9.5s-4.253 9.5-9.5 9.5-9.5-4.253-9.5-9.5S6.753 2.5 12 2.5zm.036 13.78h-.096c-.475 0-.86.385-.86.86s.385.86.86.86h.096c.475 0 .86-.385.86-.86s-.385-.86-.86-.86zM12.058 6c-1.295 0-2.23.357-2.808 1.072-.382.473-.626.972-.73 1.499-.004.018-.008.037-.01.058-.06.362.188.704.55.762.035.006.07.008.106.008.366 0 .679-.265.738-.626.006-.035.012-.066.019-.094.074-.3.213-.565.417-.795.354-.4.903-.6 1.648-.6.717 0 1.248.222 1.593.668.345.446.466.933.363 1.461-.158.755-.642 1.354-1.453 1.795-.81.442-1.215 1.258-1.215 2.45v.613c0 .386.312.698.698.698.386 0 .699-.312.699-.698v-.653c0-.947.41-1.611 1.23-1.993.819-.383 1.331-1.11 1.536-2.185.187-.919-.056-1.722-.726-2.41-.67-.686-1.556-1.03-2.655-1.03z" transform="translate(-151 -30) translate(151 30)"/>
            </g>
        </g>
    </g>
</svg>
