<svg xmlns="http://www.w3.org/2000/svg" width="24" height="24" viewBox="0 0 24 24">
    <g fill="none" fill-rule="evenodd">
        <g>
            <g>
                <path d="M0 0H24V24H0z" transform="translate(-19 -30) translate(19 30)"/>
                <path d="M0 0L24 0 24 24 0 24z" transform="translate(-19 -30) translate(19 30)"/>
                <path fill="#4DABF7" d="M11 13l.1.002C11.565 15.283 13.582 17 16 17c.653 0 1.277-.125 1.848-.353.1.281.152.578.152.89V19H4v-1.463C4 14.61 8.667 13 11 13zm0-9c1.911 0 3.504 1.332 3.904 3.12-2.167.486-3.802 2.376-3.9 4.663L11 12c-2.213 0-4-1.787-4-4s1.787-4 4-4z" transform="translate(-19 -30) translate(19 30)"/>
                <path fill="#4DABF7" d="M13.457 8.954c1.725-1.447 4.297-1.222 5.745.502 1.3 1.548 1.25 3.778-.02 5.265l.019.02 2.64 3.143c.241.287.204.716-.084.957-.287.241-.716.204-.957-.084l-2.621-3.122-.034-.045c-1.686.994-3.891.654-5.19-.894-1.449-1.724-1.223-4.295.502-5.742zm.873 1.04c-1.15.965-1.3 2.679-.335 3.829.966 1.15 2.68 1.3 3.83.335 1.15-.965 1.3-2.679.335-3.829-.965-1.15-2.68-1.3-3.83-.335z" transform="translate(-19 -30) translate(19 30)"/>
            </g>
        </g>
    </g>
</svg>
