<svg xmlns="http://www.w3.org/2000/svg" width="24" height="24" viewBox="0 0 24 24">
    <g fill="none" fill-rule="evenodd">
        <g>
            <path d="M0 0H24V24H0z"/>
            <path d="M0 0L24 0 24 24 0 24z"/>
            <path fill="#4DABF7" d="M18 18.584V20c0 .552-.448 1-1 1h-3v-2.416c.613.268 1.29.416 2 .416.711 0 1.388-.149 2-.416zM17 3c.552 0 1 .448 1 1v5.416C17.389 9.15 16.712 9 16 9c-2.761 0-5 2.239-5 5 0 .343.035.678.1 1.001L9 15v6H6c-.552 0-1-.448-1-1V4c0-.552.448-1 1-1h11zM9 9H7v2h2V9zm0-4H7v2h2V5zm4 0h-2v2h2V5z"/>
            <path fill="#4DABF7" d="M13.457 10.954c1.725-1.447 4.297-1.222 5.745.502 1.3 1.548 1.25 3.778-.02 5.265l.019.02 2.64 3.143c.241.287.204.716-.084.957-.287.241-.716.204-.957-.084l-2.621-3.122-.034-.045c-1.686.994-3.891.654-5.19-.894-1.449-1.724-1.223-4.295.502-5.742zm.873 1.04c-1.15.965-1.3 2.679-.335 3.829.966 1.15 2.68 1.3 3.83.335 1.15-.965 1.3-2.679.335-3.829-.965-1.15-2.68-1.3-3.83-.335z"/>
        </g>
    </g>
</svg>
