<svg xmlns="http://www.w3.org/2000/svg" width="24" height="24" viewBox="0 0 24 24">
    <g fill="none" fill-rule="evenodd">
        <g>
            <g>
                <path d="M0 0L24 0 24 24 0 24z" transform="translate(-195 -30) translate(195 30)"/>
                <path fill="#4DABF7" d="M12.931 4c.266 0 .52.105.708.293l6.876 6.878c.647.651.647 1.703 0 2.354L14.53 19.51c-.313.314-.738.49-1.181.49-.443 0-.868-.176-1.181-.49l-6.876-6.87C5.105 12.454 5 12.2 5 11.934V5c0-.552.448-1 1-1h6.931zM9 7c-.552 0-1 .448-1 1s.448 1 1 1 1-.448 1-1-.448-1-1-1z" transform="translate(-195 -30) translate(195 30)"/>
            </g>
        </g>
    </g>
</svg>
