<?xml version="1.0" encoding="UTF-8"?>
<svg width="140px" height="80px" viewBox="0 0 140 80" version="1.1" xmlns="http://www.w3.org/2000/svg" xmlns:xlink="http://www.w3.org/1999/xlink">
    <!-- Generator: Sketch 61.2 (89653) - https://sketch.com -->
    <title>Group Copy</title>
    <desc>Created with Sketch.</desc>
    <g id="Mobile" stroke="none" stroke-width="1" fill="none" fill-rule="evenodd">
        <g id="01.-splash" transform="translate(-98.000000, -107.000000)">
            <g id="Group-Copy" transform="translate(98.000000, 107.000000)">
                <path d="M128.782295,0 C125.250059,0 122.051282,1.9868012 122.051282,5.78633042 L122.051282,7.19124395 L122.051282,35.4759158 L122.051282,36.8808294 C122.051282,40.6206905 125.316751,42.6666667 128.781808,42.6666667 C132.314044,42.6666667 135.512821,40.6798655 135.512821,36.8808294 L135.512821,35.4759158 L135.512821,7.19124395 L135.512821,5.78633042 C135.512821,2.04548309 132.247352,0 128.782295,0" id="Fill-1" fill="#4DABF7"></path>
                <path d="M101.483021,21.6770275 C101.483021,25.5800554 98.7311594,27.6049383 94.7889064,27.6049383 C90.8466535,27.6049383 88.0942481,25.5800554 88.0942481,21.6770275 L88.0942481,16.5446956 C88.0942481,12.7135393 90.8466535,10.617284 94.7889064,10.617284 C98.7311594,10.617284 101.483021,12.7135393 101.483021,16.5446956 L101.483021,21.6770275 Z M94.2312964,0 C81.9618161,0 73.5897436,5.18877213 73.5897436,17.1007962 L73.5897436,21.1209214 C73.5897436,33.0334501 81.9618161,38.2222222 94.2312964,38.2222222 C106.50025,38.2222222 114.871795,33.0334501 114.871795,21.1209214 L114.871795,17.1007962 C114.871795,5.18877213 106.50025,0 94.2312964,0 L94.2312964,0 Z" id="Fill-3" fill="#88DCFF"></path>
                <path d="M17.5897436,19.1111111 L32.6669193,19.1111111 L47.7435897,19.1111111 L47.7435897,23.1583958 C47.7435897,24.6570524 47.2596248,25.4814815 45.6000998,25.4814815 L32.6669193,25.4814815 L19.7337387,25.4814815 C18.0737086,25.4814815 17.5897436,24.6570524 17.5897436,23.1583958 L17.5897436,19.1111111 Z M13.7417048,38.2222222 L33.2053839,38.2222222 L52.669063,38.2222222 C61.1405374,38.2222222 62.8205128,35.2269338 62.8205128,26.0846432 L62.8205128,7.01440449 C62.8205128,1.89122998 59.3199247,0 55.6091479,0 C52.1090712,0 48.4678458,2.20660318 48.4678458,7.17183879 L33.2053839,7.17183879 L17.9424106,7.17183879 C17.9424106,2.20660318 14.3016967,0 10.8011085,0 C7.09033171,0 3.58974359,1.89122998 3.58974359,7.01440449 L3.58974359,26.0846432 C3.58974359,35.2269338 5.27023045,38.2222222 13.7417048,38.2222222 L13.7417048,38.2222222 Z" id="Fill-5" fill="#4DABF7"></path>
                <path d="M60.4627226,42.6674353 L33.4123153,42.6674353 L6.36139343,42.6674353 C2.06430477,42.6674353 0.443956041,45.9339779 0.443956041,49.0448714 C0.443956041,52.2330671 2.13479946,55.3439606 6.36139343,55.3439606 L26.226488,55.3439606 L26.226488,71.9853604 C26.226488,76.4114369 29.4435158,80.0007686 33.4123153,80.0007686 C37.3806003,80.0007686 40.597628,76.4114369 40.597628,71.9853604 L40.597628,55.3439606 L60.4627226,55.3439606 C64.6893166,55.3439606 66.38016,52.2330671 66.38016,49.0448714 C66.38016,45.9339779 64.7598112,42.6674353 60.4627226,42.6674353" id="Fill-7" fill="#88DCFF"></path>
                <path d="M136.239317,65.0159451 C135.218437,64.470474 134.109595,64.141221 133.009031,63.8150791 C126.856326,61.9878546 120.194474,59.3299792 117.867095,52.365371 C117.07233,49.9869718 116.419857,47.0620645 114.908457,45.0875836 C113.797027,43.6362778 112.173864,42.6666667 110.405822,42.6666667 C110.399095,42.6666667 110.391851,42.6682222 110.384607,42.6682222 C110.377881,42.6682222 110.370637,42.6666667 110.363393,42.6666667 C108.59535,42.6666667 106.972187,43.6362778 105.861275,45.0875836 C104.349875,47.0620645 103.696884,49.9869718 102.902119,52.365371 C100.575257,59.3299792 93.9128884,61.9878546 87.7607009,63.8150791 C86.6601372,64.141221 85.5512946,64.470474 84.5304144,65.0159451 C81.1655973,66.8125776 79.5931417,71.7311507 81.774607,75.1616039 C85.7686133,81.4433362 95.4299795,76.5408369 99.9590037,73.8419994 C100.27722,73.6522252 100.593885,73.45934 100.908997,73.2633437 C103.919377,71.392046 106.802471,69.1199411 109.375628,66.3822154 C109.72282,66.0130373 110.048281,65.6366 110.363393,65.2560146 C110.370637,65.2643108 110.377881,65.2720884 110.384607,65.280903 C110.391851,65.2720884 110.399095,65.2643108 110.405822,65.2560146 C110.721451,65.6366 111.046912,66.0130373 111.394104,66.3822154 C113.966743,69.1199411 116.850354,71.392046 119.860735,73.2633437 C120.175847,73.45934 120.491994,73.6522252 120.810728,73.8419994 C125.339752,76.5408369 135.001118,81.4433362 138.994607,75.1616039 C141.176073,71.7311507 139.603617,66.8125776 136.239317,65.0159451" id="Fill-10" fill="#4DABF7"></path>
            </g>
        </g>
    </g>
</svg>