<svg xmlns="http://www.w3.org/2000/svg" xmlns:xlink="http://www.w3.org/1999/xlink" width="140" height="81" viewBox="0 0 140 81">
    <defs>
        <filter id="qckmr6ojoa">
            <feColorMatrix in="SourceGraphic" values="0 0 0 0 0.533333 0 0 0 0 0.862745 0 0 0 0 1.000000 0 0 0 1.000000 0"/>
        </filter>
        <path id="s4tp4u43nb" d="M0.444 0.001L66.38 0.001 66.38 37.334 0.444 37.334z"/>
    </defs>
    <g fill="none" fill-rule="evenodd">
                <path fill="#4DABF7" d="M128.782 0c-3.532 0-6.73 1.987-6.73 5.786V36.881c0 3.74 3.265 5.786 6.73 5.786 3.532 0 6.73-1.987 6.73-5.786V5.786c0-3.74-3.265-5.786-6.73-5.786" transform="translate(-90 -158) translate(90 158)"/>
                <path fill="#88DCFF" d="M101.483 21.677c0 3.903-2.752 5.928-6.694 5.928s-6.695-2.025-6.695-5.928v-5.132c0-3.831 2.753-5.928 6.695-5.928s6.694 2.097 6.694 5.928v5.132zM94.231 0C81.961 0 73.59 5.189 73.59 17.1v4.02c0 11.913 8.372 17.102 20.641 17.102 12.27 0 20.64-5.189 20.64-17.101V17.1C114.872 5.189 106.502 0 94.232 0z" transform="translate(-90 -158) translate(90 158)"/>
                <path fill="#4DABF7" d="M17.59 19.111h30.154v4.047c0 1.5-.484 2.323-2.144 2.323H19.734c-1.66 0-2.144-.824-2.144-2.323v-4.047zm-3.848 19.111h38.927c8.472 0 10.152-2.995 10.152-12.137V7.015C62.82 1.89 59.32 0 55.609 0c-3.5 0-7.141 2.207-7.141 7.172H17.942c0-4.965-3.64-7.172-7.14-7.172C7.09 0 3.59 1.891 3.59 7.014v19.07c0 9.143 1.68 12.138 10.152 12.138z" transform="translate(-90 -158) translate(90 158)"/>
                <g filter="url(#qckmr6ojoa)" transform="translate(-90 -158) translate(90 158)">
                    <g transform="translate(0 42.667)">
                        <mask id="0pr3c33qyc" fill="#fff">
                            <use xlink:href="#s4tp4u43nb"/>
                        </mask>
                        <path fill="#88D0F1" d="M60.463 0H6.36C2.064 0 .444 3.268.444 6.379c0 3.188 1.69 6.3 5.917 6.3h19.865v16.64c0 4.427 3.218 8.016 7.186 8.016 3.969 0 7.186-3.59 7.186-8.015V12.677h19.865c4.226 0 5.917-3.11 5.917-6.299 0-3.11-1.62-6.377-5.917-6.377" mask="url(#0pr3c33qyc)"/>
                    </g>
                </g>
                <path fill="#4DABF7" d="M136.24 65.016c-1.022-.546-2.13-.875-3.231-1.2-6.153-1.828-12.815-4.486-15.142-11.45-.795-2.379-1.447-5.304-2.959-7.278-1.111-1.452-2.734-2.421-4.502-2.421l-.021.001-.022-.001c-1.768 0-3.39.97-4.502 2.42-1.511 1.975-2.164 4.9-2.959 7.278-2.327 6.965-8.99 9.623-15.141 11.45-1.1.326-2.21.655-3.23 1.2-3.365 1.798-4.938 6.716-2.756 10.147 3.994 6.281 13.655 1.379 18.184-1.32.318-.19.635-.383.95-.579 3.01-1.871 5.893-4.143 8.467-6.88.347-.37.672-.746.987-1.127l.022.025.02-.025c.316.38.642.757.99 1.126 2.572 2.738 5.455 5.01 8.466 6.881.315.196.631.39.95.579 4.529 2.699 14.19 7.601 18.184 1.32 2.181-3.43.609-8.35-2.756-10.146" transform="translate(-90 -158) translate(90 158)"/>
    </g>
</svg>
